<?xml version="1.0" encoding="utf-8"?>
<svg version="1.1" xmlns:xlink="http://www.w3.org/1999/xlink" width="42px" height="31px" xmlns="http://www.w3.org/2000/svg">
  <g transform="matrix(1 0 0 1 -196 -14 )">
    <path d="M 41.3121428571429 11.5469618055556  C 41.1192857142857 11.9489930555556  40.7191071428571 12.1836458333333  40.3028571428571 12.1836458333333  C 40.1405357142857 12.1836458333333  39.9755357142857 12.1486631944444  39.8196428571429 12.0733159722222  L 20.4058928571429 2.70604166666667  L 1.78875 12.0652430555556  C 1.23642857142857 12.3429513888889  0.565178571428574 12.1179861111111  0.288750000000002 11.5631076388889  C 0.0123214285714311 11.0087673611111  0.235714285714288 10.3338715277778  0.788035714285716 10.0561631944444  L 19.8958928571429 0.45046875  C 20.2053617349376 0.295609240872632  20.5685922415419 0.292631176705166  20.8805357142857 0.442395833333335  L 40.7882142857143 10.0480902777778  C 41.3448214285714 10.3171875  41.5794642857143 10.9877777777778  41.3121428571429 11.5469618055556  Z M 27.5158928571429 23.8619270833333  C 27.5158928571429 27.6400520833333  24.4569642857143 30.7136805555555  20.69625 30.7136805555556  C 16.9355357142857 30.7136805555556  13.8766071428571 27.6400520833333  13.8766071428571 23.8619270833333  C 13.8766071428571 20.0843402777778  16.9360714285714 17.0107118055555  20.69625 17.0107118055555  C 24.4564285714286 17.0107118055555  27.5158928571429 20.0843402777778  27.5158928571429 23.8619270833333  Z M 25.2798214285714 23.8619270833333  C 25.2798214285714 21.3227256944444  23.22375 19.2571354166667  20.69625 19.2571354166667  C 18.16875 19.2571354166667  16.1126785714286 21.3227256944444  16.1126785714286 23.8619270833333  C 16.1126785714286 26.4016666666667  18.16875 28.4672569444444  20.69625 28.4672569444444  C 23.22375 28.4672569444444  25.2798214285714 26.4016666666667  25.2798214285714 23.8619270833333  Z M 22.9258928571429 15.6490798611111  C 22.9258928571429 15.7583333333333  22.8375 15.8471354166667  22.7292857142857 15.8471354166667  L 18.5753571428571 15.8471354166667  C 18.5041071428571 15.8471354166667  18.44625 15.7890104166667  18.44625 15.7174305555556  L 18.44625 15.2965625  C 18.44625 14.0533333333333  19.4496428571429 13.0452951388889  20.6871428571429 13.0452951388889  C 21.9235714285714 13.0452951388889  22.9258928571429 14.0522569444444  22.9258928571429 15.2944097222222  L 22.9258928571429 15.6490798611111  Z " fill-rule="nonzero" fill="#ffffff" stroke="none" transform="matrix(1 0 0 1 196 14 )" />
  </g>
</svg>