<?xml version="1.0" encoding="utf-8"?>
<svg version="1.1" xmlns:xlink="http://www.w3.org/1999/xlink" width="37px" height="35px" xmlns="http://www.w3.org/2000/svg">
  <g transform="matrix(1 0 0 1 -290 -15 )">
    <path d="M 31.4381570568182 22.3782551041667  C 30.3360111477273 22.66446140625  28.9517919019886 23.2820231770833  27.3035251519886 24.2342775  C 26.9907105879115 26.0133510518549  25.4323254589078 27.3118735797728  23.610028953125 27.31187875  L 16.4841127599432 27.31187875  C 15.7702815259294 27.31187875  15.191606975142 26.7384174834539  15.191606975142 26.0310171614583  C 15.191606975142 25.3236168394627  15.7702815259294 24.7501555729167  16.4841127599432 24.7501555729167  L 23.610028953125 24.7501555729167  C 24.252477070994 24.7501555729167  24.7732841725852 24.2340404271956  24.7732841725852 23.5973801302083  C 24.7732841725852 22.9607198332211  24.252477070994 22.4446046875  23.610028953125 22.4446046875  C 23.610028953125 22.4446046875  23.610028953125 22.4446046875  23.610028953125 22  L 2.803954234375 22  L 2.803954234375 27.396680625  C 12.167836765625 33.8557564583333  21.2916400142045 33.7352278645833  30.4800190894886 27.0407875520833  C 32.3414254957386 25.574421875  33.4578335383523 24.3550023958333  33.8264700568182 23.4712569791667  C 33.9326212828896 23.2776364383181  33.9664982734346 23.053129477114  33.9221452244318 22.8372059375  C 33.8226650349769 22.6290346872028  33.657060844598 22.4589233755817  33.4507024715909 22.3529322916667  C 33.0575034190341 22.1479944270833  32.3955027301136 22.1293458854167  31.4381570568182 22.3782551041667  Z M 23.6098308664773 19.8828815104167  C 24.8870793622738 19.882016993473  26.0767016506995 20.5263005618147  26.7657238977273 21.59207109375  C 30.2912438806818 19.6718583854167  32.9087413977273 19.1127941666667  34.7410293295455 20.1323796354167  C 34.7594512301136 20.14278359375  34.7772789232955 20.1533838020833  34.7951065639205 20.1643766145833  C 36.4055390795455 21.1655097916667  36.9328417940341 22.7319888020833  36.2153773167614 24.45060078125  C 35.6377609616477 25.833735  34.256513015625 27.3409311979167  32.0686621789773 29.0617025  C 32.0564325699134 29.071360271685  32.0440169566721 29.0807844392916  32.0314222045455 29.0899697916667  C 21.7531785397727 36.5886536979167  11.2198011122159 36.5886536979167  0.754565018465908 29.0968403125  C 0.418142147471212 28.8559925427313  0.218891470060921 28.4696980914591  0.218942664772726 28.05841  L 0.218942664772726 25.8643579166667  C 0.216836709308833 25.8345657985993  0.215779622513955 25.8047099698615  0.215773330965908 25.77484484375  L 0.215773330965908 21.4199154166667  C 0.215773330965909 21.3869369097222  0.216829775568181 21.3542201388889  0.218942664772726 21.3217651041667  L 0.218942664772726 21.2236147916667  C 0.218946344308501 20.6126716563191  0.654291933005049 20.0867457927695  1.25888983948864 19.96729078125  C 1.42228862751643 19.9111596165218  1.59404093946309 19.8826262274608  1.766978359375 19.8828815104167  L 23.6098308664773 19.8828815104167  Z M 23.8978466974432 10.0405644270833  L 25.732709703125 8.22223171875  C 26.3427079818076 7.6177028895131  26.6853992383758 6.79780146818574  26.6853992383758 5.94288700520833  C 26.6853992383758 4.16256971460395  25.2290466239281 2.71933739398002  23.4325446306818 2.71933739398002  C 22.5698096812487 2.71933739398002  21.7424121568772 3.05897945019798  21.1323795582386 3.66354229166667  L 19.2975165525568 5.481875  C 19.0551484089295 5.72214666826583  18.7263739540376 5.85713720373279  18.3835515397727 5.85713720373279  C 18.0407291255079 5.85713720373279  17.7119546706159 5.72214666826583  17.4695865269886 5.481875  L 15.6345254346591 3.66354229166667  C 15.0245099960169 3.05902248760682  14.1971515121245 2.71940679799429  13.3344594055398 2.71940679799429  C 11.5379960915338 2.71940679799429  10.0816748328056 4.16260804538261  10.0816748328056 5.94288700520833  C 10.0816748328056 6.79780711083289  10.4243779377783 7.61771191469016  11.0343933764205 8.22223171875  L 12.8692563821023 10.0405644270833  C 12.9103803155498 10.0812177612576  12.9486973055229 10.1245672379895  12.9839477102273 10.1703191145833  L 18.3835515397727 15.5212779166667  L 23.7829573352273 10.1703191145833  C 23.818238459603 10.1245921701018  23.8565536809064 10.0812446744698  23.8976486107955 10.0405644270833  Z M 18.3837496264205 2.76487802083333  L 19.3046476193182 1.85208010416667  C 20.3994602430139 0.767130657261013  21.8843448133179 0.157612404705758  23.4326436740057 0.157612404705758  C 26.6568091452234 0.157612404705758  29.2705116799674 2.74776806976733  29.2705116799674 5.94288700520833  C 29.2705116799674 7.4772372275115  28.6554523523889 8.94874445934435  27.5606397286932 10.03369390625  L 25.8483914644886 11.7303202083333  C 25.8131918327705 11.7760554086222  25.7749418868211 11.8194039217021  25.7338982230114 11.8600749479167  L 19.3056380525568 18.2300302604167  C 19.0633117604464 18.4702299206673  18.7346125636999 18.605177434292  18.3918711264205 18.605177434292  C 18.049129689141 18.605177434292  17.7204304923946 18.4702299206673  17.4781042002841 18.2300302604167  L 17.4697846136364 18.2221782291667  L 18.3837496264205 17.3164471354167  L 19.2977146392046 18.2219819270833  L 19.2895931392045 18.2302265625  C 19.0472249955772 18.4704982307658  18.7184505406853 18.6054887662328  18.3756281264204 18.6054887662328  C 18.0328057121556 18.6054887662328  17.7040312572637 18.4704982307658  17.4616631136364 18.2302265625  L 11.0336010298295 11.86027125  C 10.9923889949596 11.8195605982124  10.9540671407245 11.7760744199825  10.9189097017045 11.73012390625  L 9.2066614375 10.03369390625  C 8.11184881380429 8.94874445934434  7.49678948622581 7.4772372275115  7.49678948622581 5.94288700520833  C 7.49678948622581 2.74776806976732  10.1104920209698 0.157612404705752  13.3346574921875 0.157612404705752  C 14.8829563528752 0.157612404705752  16.3678409231793 0.767130657261008  17.462653546875 1.85208010416666  L 18.3837496264205 2.76487802083333  Z " fill-rule="nonzero" fill="#ffffff" stroke="none" transform="matrix(1 0 0 1 290 15 )" />
  </g>
</svg>