<?xml version="1.0" encoding="utf-8"?>
<svg version="1.1" xmlns:xlink="http://www.w3.org/1999/xlink" width="40px" height="40px" xmlns="http://www.w3.org/2000/svg">
  <g transform="matrix(1 0 0 1 -108 -12 )">
    <path d="M 3.15625 16.21875  C 3.15625 9.01615625  9.01615625 3.15625  16.21875 3.15625  C 23.42134375 3.15625  29.28125 9.01615625  29.28125 16.21875  C 29.28125 23.42134375  23.42134375 29.28125  16.21875 29.28125  C 9.01615625 29.28125  3.15625 23.42134375  3.15625 16.21875  Z M 31.6875 16.21875  C 31.6875 7.67553125  24.7623125 0.75  16.21875 0.75  C 7.6751875 0.75  0.75 7.67553125  0.75 16.21875  C 0.75 24.7623125  7.6751875 31.6875  16.21875 31.6875  C 24.7623125 31.6875  31.6875 24.7623125  31.6875 16.21875  Z M 39.2722615368897 37.55325  C 39.2722615368897 37.0974431802975  39.0911343752798 36.6603175409633  38.76875 36.33809375  L 29.61778125 27.187125  C 28.8897809046238 28.0752558962678  28.0758404097545 28.8893115333772  27.1878125 29.6174375  L 36.3384375 38.76840625  C 36.6603684826758 39.0912383696383  37.0976771860743 39.2724709723197  37.55359375 39.272  C 38.0095631827477 39.2727375579838  38.4469702203017 39.0914642029579  38.76875 38.76840625  C 39.0911343752798 38.4461824590367  39.2722615368897 38.0090568197025  39.2722615368897 37.55325  Z " fill-rule="nonzero" fill="#ffffff" stroke="none" transform="matrix(1 0 0 1 108 12 )" />
  </g>
</svg>