<?xml version="1.0" encoding="utf-8"?>
<svg version="1.1" xmlns:xlink="http://www.w3.org/1999/xlink" width="30px" height="24px" xmlns="http://www.w3.org/2000/svg">
  <g transform="matrix(1 0 0 1 -321 -158 )">
    <path d="M 29.673670212766 13.6602631578947  C 29.673670212766 8.16394736842105  25.1728723404255 3.71052631578947  19.6160904255319 3.71052631578947  C 14.0617021276596 3.71052631578947  9.55890957446809 8.16592105263158  9.55890957446809 13.6618421052632  C 9.55890957446809 19.1577631578947  14.0617021276596 23.6135526315789  19.6160904255319 23.6135526315789  C 25.1704787234043 23.6135526315789  29.673670212766 19.1565789473684  29.673670212766 13.6602631578947  Z M 28.4768617021277 13.6602631578947  L 28.4768617021277 13.6618421052632  C 28.4696820780439 18.481743054229  24.5187977552045 22.385281458165  19.6476159732094 22.385281458165  C 14.771352908081 22.385281458165  10.8183606540605 18.4738996489236  10.8183606540605 13.6489656686913  C 10.8183606540605 8.82403168845905  14.771352908081 4.91264987921765  19.6476159732094 4.91264987921765  C 23.1964030096258 4.91264987921765  26.400313089242 7.01500981193657  27.7811170212766 10.2497368421053  C 28.2423417071982 11.3287535784235  28.4789710975863 12.4887060512485  28.4768617021277 13.6602631578947  Z M 3.31795212765957 0.552631578947368  L 0.797872340425532 0.552631578947368  C 0.467382795978913 0.552631578947368  0.199468085106383 0.817726134968609  0.199468085106383 1.14473684210526  C 0.199468085106383 1.47174754924192  0.467382795978913 1.73684210526316  0.797872340425532 1.73684210526316  L 3.31755319148936 1.73684210526316  C 3.64804273593598 1.73684210526316  3.91595744680851 1.47174754924192  3.91595744680851 1.14473684210526  C 3.91595744680851 0.817726134968609  3.64804273593598 0.552631578947368  3.31755319148936 0.552631578947368  Z " fill-rule="nonzero" fill="#192b3a" stroke="none" transform="matrix(1 0 0 1 321 158 )" />
  </g>
</svg>